<svg xmlns="http://www.w3.org/2000/svg" version="1.1"
        xmlns:xlink="http://www.w3.org/1999/xlink"
        xmlns:svgjs="http://svgjs.dev/svgjs" width="2000" height="1999" viewBox="0 0 2000 1999">
        <g transform="matrix(1,0,0,1,-0.431486880466764,-0.4312711370263287)">
                <svg viewBox="0 0 343 343" data-background-color="#eae5df" preserveAspectRatio="xMidYMid meet" height="1999" width="2000"
                        xmlns="http://www.w3.org/2000/svg"
                        xmlns:xlink="http://www.w3.org/1999/xlink">
                        <g id="tight-bounds" transform="matrix(1,0,0,1,0.0740000000000407,0.07400000000001228)">
                                <svg viewBox="0 0 342.85155851775386 342.85155851775386" height="342.85155851775386" width="342.85155851775386">
                                        <g>
                                                <svg></svg>
                                        </g>
                                        <g>
                                                <svg viewBox="0 0 342.85155851775386 342.85155851775386" height="342.85155851775386" width="342.85155851775386">
                                                        <g>
                                                                <path d="M0 171.426c0-94.676 76.75-171.426 171.426-171.426 94.676 0 171.426 76.75 171.426 171.426 0 94.676-76.75 171.426-171.426 171.426-94.676 0-171.426-76.75-171.426-171.426zM171.426 331.705c88.52 0 160.279-71.76 160.279-160.279 0-88.52-71.76-160.279-160.279-160.28-88.52 0-160.279 71.76-160.28 160.28 0 88.52 71.76 160.279 160.28 160.279z" data-fill-palette-color="tertiary" fill="#ed6500" stroke="transparent"></path>
                                                                <ellipse rx="164.56874808852186" ry="164.56874808852186" cx="171.42577925887693" cy="171.42577925887693" fill="#ed6500" stroke="transparent" stroke-width="0" fill-opacity="1" data-fill-palette-color="tertiary"></ellipse>
                                                        </g>
                                                        <g transform="matrix(1,0,0,1,64.84655864529837,109.62554322741616)">
                                                                <svg viewBox="0 0 213.1584412271571 123.60047206292154" height="123.60047206292154" width="213.1584412271571">
                                                                        <g>
                                                                                <svg viewBox="0 0 213.1584412271571 123.60047206292154" height="123.60047206292154" width="213.1584412271571">
                                                                                        <g>
                                                                                                <svg viewBox="0 0 213.1584412271571 123.60047206292154" height="123.60047206292154" width="213.1584412271571">
                                                                                                        <g>
                                                                                                                <svg viewBox="0 0 213.1584412271571 123.60047206292154" height="123.60047206292154" width="213.1584412271571">
                                                                                                                        <g id="textblocktransform">
                                                                                                                                <svg viewBox="0 0 213.1584412271571 123.60047206292154" height="123.60047206292154" width="213.1584412271571" id="textblock">
                                                                                                                                        <g>
                                                                                                                                                <svg viewBox="0 0 213.1584412271571 123.60047206292154" height="123.60047206292154" width="213.1584412271571">
                                                                                                                                                        <g transform="matrix(1,0,0,1,0,0)">
                                                                                                                                                                <svg width="213.1584412271571" viewBox="3.25 -34.85 61.05 35.4" height="123.60047206292154" data-palette-color="#000000">
                                                                                                                                                                        <path d="M12.2-34.85L18.5-15.6 19-15.6 26.3-34.6 33.2-34.4 33.4-12.9 34.35 0 27.6 0 27.85-13 27.3-26.15 21.3-9.6 15.15-9.3 9.55-26.15 9.1-13 9.45 0 3.25 0 3.95-12.15 4.25-33.6 12.2-34.85ZM41.35-34.5L52.2-34.5Q57-34.5 59.8-32.33 62.6-30.15 62.6-26.5L62.6-26.5Q62.6-20.65 57.8-18.35L57.8-18.35Q64.3-16.1 64.3-10.05L64.3-10.05Q64.3-5.5 60.4-2.48 56.5 0.55 50.6 0.55L50.6 0.55Q47.5 0.55 41.35 0L41.35 0 41.95-12.15 41.35-34.5ZM51.55-14.85L51.55-14.85 47.5-14.85 47.45-13 47.8-4.85Q50.7-4.6 52.25-4.6L52.25-4.6Q54.9-4.6 56.37-5.93 57.85-7.25 57.85-9.8 57.85-12.35 56.35-13.6 54.85-14.85 51.55-14.85ZM50.4-29.45L50.4-29.45 47.95-29.45 47.65-19.7 50.9-19.7Q53.45-19.7 54.8-21.08 56.15-22.45 56.15-25L56.15-25Q56.15-29.45 50.4-29.45Z" opacity="1" transform="matrix(1,0,0,1,0,0)" fill="#000000" class="wordmark-text-0" data-fill-palette-color="quaternary" id="text-0"></path>
                                                                                                                                                                </svg>
                                                                                                                                                        </g>
                                                                                                                                                </svg>
                                                                                                                                        </g>
                                                                                                                                </svg>
                                                                                                                        </g>
                                                                                                                </svg>
                                                                                                        </g>
                                                                                                        <g></g>
                                                                                                </svg>
                                                                                        </g>
                                                                                </svg>
                                                                        </g>
                                                                </svg>
                                                        </g>
                                                </svg>
                                        </g>
                                        <defs></defs>
                                </svg>
                                <rect width="342.85155851775386" height="342.85155851775386" fill="none" stroke="none" visibility="hidden"></rect>
                        </g>
                </svg>
        </g>
</svg>